<mxfile host="app.diagrams.net" modified="2023-10-19T09:35:22.504Z" agent="Mozilla/5.0 (X11; Linux x86_64; rv:109.0) Gecko/20100101 Firefox/114.0" etag="C2zrlPrwI9JVraylW9Yl" version="21.6.6" type="github">
  <diagram name="第 1 页" id="yinPJy8ky_LoU8YPqj6X">
    <mxGraphModel dx="2074" dy="1078" grid="1" gridSize="10" guides="1" tooltips="1" connect="1" arrows="1" fold="1" page="1" pageScale="1" pageWidth="827" pageHeight="1169" math="0" shadow="0">
      <root>
        <mxCell id="0" />
        <mxCell id="1" parent="0" />
        <mxCell id="-RX_mfhenREwzmdWsn4W-11" value="" style="edgeStyle=orthogonalEdgeStyle;rounded=0;orthogonalLoop=1;jettySize=auto;html=1;" edge="1" parent="1" source="-RX_mfhenREwzmdWsn4W-1" target="-RX_mfhenREwzmdWsn4W-10">
          <mxGeometry relative="1" as="geometry" />
        </mxCell>
        <mxCell id="-RX_mfhenREwzmdWsn4W-12" value="" style="edgeStyle=orthogonalEdgeStyle;rounded=0;orthogonalLoop=1;jettySize=auto;html=1;" edge="1" parent="1" source="-RX_mfhenREwzmdWsn4W-1" target="-RX_mfhenREwzmdWsn4W-10">
          <mxGeometry relative="1" as="geometry" />
        </mxCell>
        <mxCell id="-RX_mfhenREwzmdWsn4W-1" value="开始采集" style="rounded=0;whiteSpace=wrap;html=1;" vertex="1" parent="1">
          <mxGeometry x="180" y="240" width="120" height="60" as="geometry" />
        </mxCell>
        <mxCell id="-RX_mfhenREwzmdWsn4W-44" value="" style="edgeStyle=orthogonalEdgeStyle;rounded=0;orthogonalLoop=1;jettySize=auto;html=1;" edge="1" parent="1" source="-RX_mfhenREwzmdWsn4W-2" target="-RX_mfhenREwzmdWsn4W-43">
          <mxGeometry relative="1" as="geometry" />
        </mxCell>
        <mxCell id="-RX_mfhenREwzmdWsn4W-2" value="结束采集" style="rounded=0;whiteSpace=wrap;html=1;" vertex="1" parent="1">
          <mxGeometry x="400" y="240" width="120" height="60" as="geometry" />
        </mxCell>
        <mxCell id="-RX_mfhenREwzmdWsn4W-42" style="edgeStyle=orthogonalEdgeStyle;rounded=0;orthogonalLoop=1;jettySize=auto;html=1;entryX=0.5;entryY=0;entryDx=0;entryDy=0;" edge="1" parent="1" source="-RX_mfhenREwzmdWsn4W-3" target="-RX_mfhenREwzmdWsn4W-1">
          <mxGeometry relative="1" as="geometry" />
        </mxCell>
        <mxCell id="-RX_mfhenREwzmdWsn4W-3" value="点击采集" style="rounded=0;whiteSpace=wrap;html=1;" vertex="1" parent="1">
          <mxGeometry x="180" y="50" width="120" height="60" as="geometry" />
        </mxCell>
        <mxCell id="-RX_mfhenREwzmdWsn4W-6" value="" style="edgeStyle=orthogonalEdgeStyle;rounded=0;orthogonalLoop=1;jettySize=auto;html=1;" edge="1" parent="1" source="-RX_mfhenREwzmdWsn4W-4" target="-RX_mfhenREwzmdWsn4W-5">
          <mxGeometry relative="1" as="geometry" />
        </mxCell>
        <mxCell id="-RX_mfhenREwzmdWsn4W-4" value="切换采集状态" style="rounded=0;whiteSpace=wrap;html=1;" vertex="1" parent="1">
          <mxGeometry x="400" y="50" width="120" height="60" as="geometry" />
        </mxCell>
        <mxCell id="-RX_mfhenREwzmdWsn4W-7" value="未采集" style="edgeStyle=orthogonalEdgeStyle;rounded=0;orthogonalLoop=1;jettySize=auto;html=1;entryX=0.5;entryY=0;entryDx=0;entryDy=0;" edge="1" parent="1" source="-RX_mfhenREwzmdWsn4W-5" target="-RX_mfhenREwzmdWsn4W-1">
          <mxGeometry relative="1" as="geometry" />
        </mxCell>
        <mxCell id="-RX_mfhenREwzmdWsn4W-8" style="edgeStyle=orthogonalEdgeStyle;rounded=0;orthogonalLoop=1;jettySize=auto;html=1;" edge="1" parent="1" source="-RX_mfhenREwzmdWsn4W-5" target="-RX_mfhenREwzmdWsn4W-2">
          <mxGeometry relative="1" as="geometry" />
        </mxCell>
        <mxCell id="-RX_mfhenREwzmdWsn4W-9" value="已采集" style="edgeLabel;html=1;align=center;verticalAlign=middle;resizable=0;points=[];" vertex="1" connectable="0" parent="-RX_mfhenREwzmdWsn4W-8">
          <mxGeometry x="0.0444" relative="1" as="geometry">
            <mxPoint as="offset" />
          </mxGeometry>
        </mxCell>
        <mxCell id="-RX_mfhenREwzmdWsn4W-5" value="判断当前状态" style="rhombus;whiteSpace=wrap;html=1;rounded=0;" vertex="1" parent="1">
          <mxGeometry x="420" y="130" width="80" height="80" as="geometry" />
        </mxCell>
        <mxCell id="-RX_mfhenREwzmdWsn4W-18" value="" style="edgeStyle=orthogonalEdgeStyle;rounded=0;orthogonalLoop=1;jettySize=auto;html=1;" edge="1" parent="1" source="-RX_mfhenREwzmdWsn4W-10" target="-RX_mfhenREwzmdWsn4W-17">
          <mxGeometry relative="1" as="geometry" />
        </mxCell>
        <mxCell id="-RX_mfhenREwzmdWsn4W-10" value="启动滤波任务" style="whiteSpace=wrap;html=1;rounded=0;" vertex="1" parent="1">
          <mxGeometry x="180" y="330" width="120" height="60" as="geometry" />
        </mxCell>
        <mxCell id="-RX_mfhenREwzmdWsn4W-20" value="" style="edgeStyle=orthogonalEdgeStyle;rounded=0;orthogonalLoop=1;jettySize=auto;html=1;" edge="1" parent="1" source="-RX_mfhenREwzmdWsn4W-17" target="-RX_mfhenREwzmdWsn4W-19">
          <mxGeometry relative="1" as="geometry" />
        </mxCell>
        <mxCell id="-RX_mfhenREwzmdWsn4W-17" value="启动推送任务" style="whiteSpace=wrap;html=1;rounded=0;" vertex="1" parent="1">
          <mxGeometry x="180" y="410" width="120" height="60" as="geometry" />
        </mxCell>
        <mxCell id="-RX_mfhenREwzmdWsn4W-22" value="" style="edgeStyle=orthogonalEdgeStyle;rounded=0;orthogonalLoop=1;jettySize=auto;html=1;" edge="1" parent="1" source="-RX_mfhenREwzmdWsn4W-19" target="-RX_mfhenREwzmdWsn4W-21">
          <mxGeometry relative="1" as="geometry" />
        </mxCell>
        <mxCell id="-RX_mfhenREwzmdWsn4W-19" value="验证是否已采集" style="whiteSpace=wrap;html=1;rounded=0;" vertex="1" parent="1">
          <mxGeometry x="180" y="500" width="120" height="60" as="geometry" />
        </mxCell>
        <mxCell id="-RX_mfhenREwzmdWsn4W-24" value="" style="edgeStyle=orthogonalEdgeStyle;rounded=0;orthogonalLoop=1;jettySize=auto;html=1;" edge="1" parent="1" source="-RX_mfhenREwzmdWsn4W-21" target="-RX_mfhenREwzmdWsn4W-23">
          <mxGeometry relative="1" as="geometry" />
        </mxCell>
        <mxCell id="-RX_mfhenREwzmdWsn4W-25" value="是" style="edgeLabel;html=1;align=center;verticalAlign=middle;resizable=0;points=[];" vertex="1" connectable="0" parent="-RX_mfhenREwzmdWsn4W-24">
          <mxGeometry x="-0.3667" y="-1" relative="1" as="geometry">
            <mxPoint as="offset" />
          </mxGeometry>
        </mxCell>
        <mxCell id="-RX_mfhenREwzmdWsn4W-27" value="" style="edgeStyle=orthogonalEdgeStyle;rounded=0;orthogonalLoop=1;jettySize=auto;html=1;" edge="1" parent="1" source="-RX_mfhenREwzmdWsn4W-21" target="-RX_mfhenREwzmdWsn4W-26">
          <mxGeometry relative="1" as="geometry" />
        </mxCell>
        <mxCell id="-RX_mfhenREwzmdWsn4W-21" value="是否已采集" style="rhombus;whiteSpace=wrap;html=1;rounded=0;" vertex="1" parent="1">
          <mxGeometry x="200" y="590" width="80" height="80" as="geometry" />
        </mxCell>
        <mxCell id="-RX_mfhenREwzmdWsn4W-23" value="返回错误信息" style="whiteSpace=wrap;html=1;rounded=0;" vertex="1" parent="1">
          <mxGeometry x="400" y="600" width="120" height="60" as="geometry" />
        </mxCell>
        <mxCell id="-RX_mfhenREwzmdWsn4W-29" value="" style="edgeStyle=orthogonalEdgeStyle;rounded=0;orthogonalLoop=1;jettySize=auto;html=1;" edge="1" parent="1" source="-RX_mfhenREwzmdWsn4W-26" target="-RX_mfhenREwzmdWsn4W-28">
          <mxGeometry relative="1" as="geometry" />
        </mxCell>
        <mxCell id="-RX_mfhenREwzmdWsn4W-26" value="蓝牙请求设备开启采集" style="whiteSpace=wrap;html=1;rounded=0;" vertex="1" parent="1">
          <mxGeometry x="180" y="700" width="120" height="60" as="geometry" />
        </mxCell>
        <mxCell id="-RX_mfhenREwzmdWsn4W-30" style="edgeStyle=orthogonalEdgeStyle;rounded=0;orthogonalLoop=1;jettySize=auto;html=1;entryX=0.5;entryY=1;entryDx=0;entryDy=0;" edge="1" parent="1" source="-RX_mfhenREwzmdWsn4W-28" target="-RX_mfhenREwzmdWsn4W-23">
          <mxGeometry relative="1" as="geometry" />
        </mxCell>
        <mxCell id="-RX_mfhenREwzmdWsn4W-31" value="失败" style="edgeLabel;html=1;align=center;verticalAlign=middle;resizable=0;points=[];" vertex="1" connectable="0" parent="-RX_mfhenREwzmdWsn4W-30">
          <mxGeometry x="-0.0308" y="-3" relative="1" as="geometry">
            <mxPoint as="offset" />
          </mxGeometry>
        </mxCell>
        <mxCell id="-RX_mfhenREwzmdWsn4W-33" value="" style="edgeStyle=orthogonalEdgeStyle;rounded=0;orthogonalLoop=1;jettySize=auto;html=1;" edge="1" parent="1" source="-RX_mfhenREwzmdWsn4W-28" target="-RX_mfhenREwzmdWsn4W-32">
          <mxGeometry relative="1" as="geometry" />
        </mxCell>
        <mxCell id="-RX_mfhenREwzmdWsn4W-34" value="成功" style="edgeLabel;html=1;align=center;verticalAlign=middle;resizable=0;points=[];" vertex="1" connectable="0" parent="-RX_mfhenREwzmdWsn4W-33">
          <mxGeometry x="-0.0667" y="2" relative="1" as="geometry">
            <mxPoint as="offset" />
          </mxGeometry>
        </mxCell>
        <mxCell id="-RX_mfhenREwzmdWsn4W-28" value="响应" style="rhombus;whiteSpace=wrap;html=1;rounded=0;" vertex="1" parent="1">
          <mxGeometry x="200" y="790" width="80" height="80" as="geometry" />
        </mxCell>
        <mxCell id="-RX_mfhenREwzmdWsn4W-36" value="" style="edgeStyle=orthogonalEdgeStyle;rounded=0;orthogonalLoop=1;jettySize=auto;html=1;dashed=1;" edge="1" parent="1" source="-RX_mfhenREwzmdWsn4W-32" target="-RX_mfhenREwzmdWsn4W-35">
          <mxGeometry relative="1" as="geometry" />
        </mxCell>
        <mxCell id="-RX_mfhenREwzmdWsn4W-61" style="edgeStyle=orthogonalEdgeStyle;rounded=0;orthogonalLoop=1;jettySize=auto;html=1;" edge="1" parent="1" source="-RX_mfhenREwzmdWsn4W-32" target="-RX_mfhenREwzmdWsn4W-59">
          <mxGeometry relative="1" as="geometry" />
        </mxCell>
        <mxCell id="-RX_mfhenREwzmdWsn4W-32" value="开启成功" style="whiteSpace=wrap;html=1;rounded=0;" vertex="1" parent="1">
          <mxGeometry x="180" y="920" width="120" height="60" as="geometry" />
        </mxCell>
        <mxCell id="-RX_mfhenREwzmdWsn4W-39" style="edgeStyle=orthogonalEdgeStyle;rounded=0;orthogonalLoop=1;jettySize=auto;html=1;dashed=1;" edge="1" parent="1" source="-RX_mfhenREwzmdWsn4W-35" target="-RX_mfhenREwzmdWsn4W-37">
          <mxGeometry relative="1" as="geometry" />
        </mxCell>
        <mxCell id="-RX_mfhenREwzmdWsn4W-35" value="设备推送数据" style="whiteSpace=wrap;html=1;rounded=0;" vertex="1" parent="1">
          <mxGeometry x="180" y="1020" width="120" height="60" as="geometry" />
        </mxCell>
        <mxCell id="-RX_mfhenREwzmdWsn4W-38" style="edgeStyle=orthogonalEdgeStyle;rounded=0;orthogonalLoop=1;jettySize=auto;html=1;entryX=0;entryY=0.5;entryDx=0;entryDy=0;dashed=1;" edge="1" parent="1" source="-RX_mfhenREwzmdWsn4W-37" target="-RX_mfhenREwzmdWsn4W-10">
          <mxGeometry relative="1" as="geometry" />
        </mxCell>
        <mxCell id="-RX_mfhenREwzmdWsn4W-37" value="采集原始数据缓存" style="rounded=0;whiteSpace=wrap;html=1;" vertex="1" parent="1">
          <mxGeometry x="10" y="330" width="120" height="60" as="geometry" />
        </mxCell>
        <mxCell id="-RX_mfhenREwzmdWsn4W-46" value="" style="edgeStyle=orthogonalEdgeStyle;rounded=0;orthogonalLoop=1;jettySize=auto;html=1;" edge="1" parent="1" source="-RX_mfhenREwzmdWsn4W-43" target="-RX_mfhenREwzmdWsn4W-45">
          <mxGeometry relative="1" as="geometry" />
        </mxCell>
        <mxCell id="-RX_mfhenREwzmdWsn4W-43" value="验证是否已停止" style="whiteSpace=wrap;html=1;rounded=0;" vertex="1" parent="1">
          <mxGeometry x="400" y="330" width="120" height="60" as="geometry" />
        </mxCell>
        <mxCell id="-RX_mfhenREwzmdWsn4W-47" style="edgeStyle=orthogonalEdgeStyle;rounded=0;orthogonalLoop=1;jettySize=auto;html=1;" edge="1" parent="1" source="-RX_mfhenREwzmdWsn4W-45" target="-RX_mfhenREwzmdWsn4W-23">
          <mxGeometry relative="1" as="geometry" />
        </mxCell>
        <mxCell id="-RX_mfhenREwzmdWsn4W-48" value="是" style="edgeLabel;html=1;align=center;verticalAlign=middle;resizable=0;points=[];" vertex="1" connectable="0" parent="-RX_mfhenREwzmdWsn4W-47">
          <mxGeometry x="-0.2815" y="-4" relative="1" as="geometry">
            <mxPoint as="offset" />
          </mxGeometry>
        </mxCell>
        <mxCell id="-RX_mfhenREwzmdWsn4W-50" value="" style="edgeStyle=orthogonalEdgeStyle;rounded=0;orthogonalLoop=1;jettySize=auto;html=1;" edge="1" parent="1" source="-RX_mfhenREwzmdWsn4W-45" target="-RX_mfhenREwzmdWsn4W-49">
          <mxGeometry relative="1" as="geometry" />
        </mxCell>
        <mxCell id="-RX_mfhenREwzmdWsn4W-51" value="否" style="edgeLabel;html=1;align=center;verticalAlign=middle;resizable=0;points=[];" vertex="1" connectable="0" parent="-RX_mfhenREwzmdWsn4W-50">
          <mxGeometry x="-0.2667" y="3" relative="1" as="geometry">
            <mxPoint as="offset" />
          </mxGeometry>
        </mxCell>
        <mxCell id="-RX_mfhenREwzmdWsn4W-45" value="是否已停止" style="rhombus;whiteSpace=wrap;html=1;rounded=0;" vertex="1" parent="1">
          <mxGeometry x="420" y="420" width="80" height="80" as="geometry" />
        </mxCell>
        <mxCell id="-RX_mfhenREwzmdWsn4W-53" value="" style="edgeStyle=orthogonalEdgeStyle;rounded=0;orthogonalLoop=1;jettySize=auto;html=1;" edge="1" parent="1" source="-RX_mfhenREwzmdWsn4W-49" target="-RX_mfhenREwzmdWsn4W-52">
          <mxGeometry relative="1" as="geometry" />
        </mxCell>
        <mxCell id="-RX_mfhenREwzmdWsn4W-49" value="蓝牙请求设备关闭采集" style="whiteSpace=wrap;html=1;rounded=0;" vertex="1" parent="1">
          <mxGeometry x="560" y="430" width="120" height="60" as="geometry" />
        </mxCell>
        <mxCell id="-RX_mfhenREwzmdWsn4W-54" style="edgeStyle=orthogonalEdgeStyle;rounded=0;orthogonalLoop=1;jettySize=auto;html=1;entryX=1;entryY=0.5;entryDx=0;entryDy=0;" edge="1" parent="1" source="-RX_mfhenREwzmdWsn4W-52" target="-RX_mfhenREwzmdWsn4W-23">
          <mxGeometry relative="1" as="geometry" />
        </mxCell>
        <mxCell id="-RX_mfhenREwzmdWsn4W-55" value="失败" style="edgeLabel;html=1;align=center;verticalAlign=middle;resizable=0;points=[];" vertex="1" connectable="0" parent="-RX_mfhenREwzmdWsn4W-54">
          <mxGeometry x="-0.0846" y="-3" relative="1" as="geometry">
            <mxPoint as="offset" />
          </mxGeometry>
        </mxCell>
        <mxCell id="-RX_mfhenREwzmdWsn4W-57" value="" style="edgeStyle=orthogonalEdgeStyle;rounded=0;orthogonalLoop=1;jettySize=auto;html=1;" edge="1" parent="1" source="-RX_mfhenREwzmdWsn4W-52" target="-RX_mfhenREwzmdWsn4W-56">
          <mxGeometry relative="1" as="geometry" />
        </mxCell>
        <mxCell id="-RX_mfhenREwzmdWsn4W-58" value="成功" style="edgeLabel;html=1;align=center;verticalAlign=middle;resizable=0;points=[];" vertex="1" connectable="0" parent="-RX_mfhenREwzmdWsn4W-57">
          <mxGeometry x="-0.1556" y="-1" relative="1" as="geometry">
            <mxPoint as="offset" />
          </mxGeometry>
        </mxCell>
        <mxCell id="-RX_mfhenREwzmdWsn4W-52" value="响应" style="rhombus;whiteSpace=wrap;html=1;rounded=0;" vertex="1" parent="1">
          <mxGeometry x="580" y="590" width="80" height="80" as="geometry" />
        </mxCell>
        <mxCell id="-RX_mfhenREwzmdWsn4W-60" value="" style="edgeStyle=orthogonalEdgeStyle;rounded=0;orthogonalLoop=1;jettySize=auto;html=1;" edge="1" parent="1" source="-RX_mfhenREwzmdWsn4W-56" target="-RX_mfhenREwzmdWsn4W-59">
          <mxGeometry relative="1" as="geometry" />
        </mxCell>
        <mxCell id="-RX_mfhenREwzmdWsn4W-56" value="采集停止" style="whiteSpace=wrap;html=1;rounded=0;" vertex="1" parent="1">
          <mxGeometry x="560" y="700" width="120" height="60" as="geometry" />
        </mxCell>
        <mxCell id="-RX_mfhenREwzmdWsn4W-59" value="推送设备状态信息" style="whiteSpace=wrap;html=1;rounded=0;" vertex="1" parent="1">
          <mxGeometry x="560" y="920" width="120" height="60" as="geometry" />
        </mxCell>
      </root>
    </mxGraphModel>
  </diagram>
</mxfile>
